Coordinates
version=1
nRows=58
nColumns=11
inDegrees=yes

Units are S.I. units (second, meters, Newtons, ...)
If the header above contains a line with 'inDegrees', this indicates whether rotational values are in degrees (yes) or radians (no).

endheader
time	pelvis_tilt	pelvis_tx	pelvis_ty	hip_flexion_l	hip_flexion_r	knee_angle_l	knee_angle_r	ankle_angle_l	ankle_angle_r	lumbar_extension
      3.53000000	     -2.53181393	      0.73316845	      0.91425457	     19.85461213	     14.65301966	    -66.91939689	    -23.20330825	    -12.24415760	      6.95911352	     -7.68594671
      3.54000000	     -2.34954457	      0.74211300	      0.91585535	     21.50513187	     13.25370282	    -68.18080448	    -22.15819420	    -11.27463791	      7.02837773	     -7.95421377
      3.55000000	     -1.94599444	      0.75147862	      0.91761066	     22.78907863	     11.47383163	    -69.18472637	    -20.89409941	    -10.23139767	      7.14966972	     -8.43564705
      3.56000000	     -1.97475623	      0.76001404	      0.91840990	     24.66403772	     10.33638880	    -70.14160155	    -19.85374649	     -9.06996928	      7.24010638	     -8.49840365
      3.57000000	     -1.66255214	      0.76915790	      0.91965856	     26.00586982	      8.71456012	    -70.78313335	    -18.65638387	     -7.96573003	      7.41011213	     -8.90607199
      3.58000000	     -1.38010575	      0.77839544	      0.92071290	     27.26716881	      7.16543267	    -71.09072038	    -17.56135618	     -6.85060521	      7.66832295	     -9.25115831
      3.59000000	     -1.02396382	      0.78792611	      0.92171819	     28.33483612	      5.46147770	    -71.13455863	    -16.33969216	     -5.63939980	      7.77005740	     -9.64556168
      3.60000000	     -0.68695716	      0.79725656	      0.92254998	     29.34385522	      3.84955126	    -70.88586541	    -15.23599273	     -4.41307421	      7.93827604	    -10.05367625
      3.61000000	     -0.53185030	      0.80645233	      0.92282031	     30.47988267	      2.51494378	    -70.40079589	    -14.28398938	     -3.05670079	      7.98483662	    -10.25861865
      3.62000000	     -0.29743788	      0.81574562	      0.92309722	     31.38583209	      1.11804667	    -69.56439889	    -13.34027054	     -2.16104311	      8.09586972	    -10.54840816
      3.63000000	      0.01658762	      0.82526684	      0.92327257	     32.08975341	     -0.35334534	    -68.46476376	    -12.47585734	     -0.88209157	      8.34802228	    -10.90343140
      3.64000000	      0.29670566	      0.83462045	      0.92325059	     32.70945667	     -1.76081110	    -67.08836661	    -11.58611564	      0.11450502	      8.34431674	    -11.26642160
      3.65000000	      0.64887579	      0.84429612	      0.92304401	     33.09182682	     -3.26336427	    -65.43356515	    -10.76156406	      1.34145788	      8.66982608	    -11.60152162
      3.66000000	      0.97773362	      0.85397778	      0.92276144	     33.36147900	     -4.69116592	    -63.49349610	    -10.00067633	      1.61935089	      8.78970249	    -11.96401706
      3.67000000	      1.20014756	      0.86373594	      0.92190459	     33.62494538	     -6.01767426	    -61.37863050	     -9.25654628	      1.93705036	      9.02619466	    -12.18209589
      3.68000000	      1.43588745	      0.87362934	      0.92103630	     33.69674687	     -7.31797010	    -58.99296310	     -8.55619692	      2.19480330	      9.19985178	    -12.41306434
      3.69000000	      1.67372236	      0.88378152	      0.91971801	     33.64737641	     -8.62864550	    -56.49705951	     -7.95074077	      2.40376665	      9.50957710	    -12.62890695
      3.70000000	      1.86556483	      0.89404829	      0.91826752	     33.48849389	     -9.83529088	    -53.81734858	     -7.44249639	      2.43599914	      9.80832954	    -12.77670584
      3.71000000	      2.12604266	      0.90459954	      0.91662744	     33.13341198	    -11.05269207	    -51.04730594	     -7.09506368	      2.38554381	     10.16995992	    -12.98976847
      3.72000000	      2.33033300	      0.91531931	      0.91460966	     32.68248313	    -12.09304360	    -48.15237917	     -6.98743836	      2.25544741	     10.59161005	    -13.14584301
      3.73000000	      2.70820123	      0.92653532	      0.91277485	     31.89642191	    -13.26907539	    -45.18544563	     -7.04308745	      2.08697131	     11.04416698	    -13.44147353
      3.74000000	      2.84124810	      0.93723226	      0.91015551	     31.35674413	    -13.96999853	    -42.35033082	     -7.46111645	      2.01085650	     11.61188162	    -13.54982796
      3.75000000	      2.98176276	      0.94806969	      0.90738454	     30.79149761	    -14.53404336	    -39.67712512	     -8.17322298	      1.84976147	     12.46627863	    -13.65576869
      3.76000000	      3.13406691	      0.95894396	      0.90442916	     30.15583440	    -15.02471728	    -37.19444048	     -9.06621884	      1.58359329	     13.22241323	    -13.80270308
      3.77000000	      3.31347901	      0.96991522	      0.90148027	     29.53410002	    -15.50909332	    -35.09540137	    -10.03045722	      1.41506081	     13.59207652	    -13.98053984
      3.78000000	      3.52030872	      0.98133342	      0.89838083	     28.81185222	    -15.96983956	    -33.26003740	    -11.20780136	      1.12264816	     14.47438715	    -14.13323536
      3.79000000	      3.79514318	      0.99306757	      0.89556497	     27.97603182	    -16.52483987	    -31.71559222	    -12.37250117	      0.83849768	     14.84866659	    -14.34648775
      3.80000000	      3.90606252	      1.00485811	      0.89234525	     27.34120407	    -16.81514929	    -30.57892932	    -13.68214011	      0.33441434	     15.42530570	    -14.37800605
      3.81000000	      4.09186955	      1.01714946	      0.88922725	     26.59275867	    -17.25150147	    -29.72162402	    -15.01172433	     -0.72910212	     15.86110367	    -14.42634835
      3.82000000	      4.16253879	      1.02976584	      0.88625811	     25.90900300	    -17.54647034	    -29.55942633	    -16.34160099	     -2.25063070	     15.97799256	    -14.32214150
      3.83000000	      3.75215482	      1.04126407	      0.88317332	     26.16160946	    -17.00913775	    -31.67521977	    -18.11160811	      2.04378131	     15.97313909	    -13.82189707
      3.84000000	      3.62670912	      1.05358809	      0.88064052	     26.46410863	    -16.89602536	    -34.24668193	    -19.75402870	      5.13846696	     15.81438584	    -13.56336151
      3.85000000	      3.26569005	      1.06551877	      0.87814519	     27.13707664	    -16.20433200	    -35.79039859	    -21.96363802	      4.99368041	     15.44166032	    -13.08298272
      3.86000000	      2.99714899	      1.07740386	      0.87667095	     27.48208486	    -15.53594987	    -36.96201547	    -24.14813539	      5.92391890	     14.46713998	    -12.74107223
      3.87000000	      2.73928573	      1.08904649	      0.87560354	     27.57814598	    -14.57892748	    -38.16375675	    -26.83035241	      7.66304829	     13.50113896	    -12.47849697
      3.88000000	      2.43032458	      1.10046549	      0.87514408	     27.37663855	    -13.35469638	    -38.86351025	    -29.63901095	      9.13074656	     11.84092322	    -12.21684857
      3.89000000	      2.06795646	      1.11153464	      0.87515073	     26.98970448	    -11.73810217	    -38.98844211	    -32.85863484	     10.41668284	      9.89240272	    -11.98059004
      3.90000000	      1.64868804	      1.12236742	      0.87576187	     26.50169975	     -9.81919896	    -38.78101491	    -36.48405821	     11.31708135	      7.67472994	    -11.72495943
      3.91000000	      1.22606535	      1.13294734	      0.87643693	     25.88803251	     -7.66211627	    -38.36313859	    -40.35807653	     11.98025520	      5.44442478	    -11.50804551
      3.92000000	      0.79732698	      1.14337426	      0.87745083	     25.22574139	     -5.33422597	    -37.82856641	    -44.08848385	     12.64208335	      2.66454427	    -11.32946252
      3.93000000	      0.33002983	      1.15328437	      0.87869263	     24.59303170	     -2.82745993	    -37.16005863	    -47.70152742	     13.14568591	     -0.35869880	    -11.18624764
      3.94000000	     -0.16236888	      1.16291962	      0.88014437	     24.04040920	     -0.19848959	    -36.51617288	    -51.17180460	     13.55516377	     -3.13837571	    -11.06046262
      3.95000000	     -0.48228758	      1.17259230	      0.88211930	     23.23647723	      2.19380537	    -35.76855544	    -54.33453385	     13.70809765	     -5.13853958	    -11.12408960
      3.96000000	     -0.85480991	      1.18189580	      0.88428117	     22.52344228	      4.69561469	    -34.99308872	    -57.28539671	     13.76983049	     -5.89471895	    -11.15317254
      3.97000000	     -0.93159100	      1.19150459	      0.88699542	     21.37680611	      6.77206835	    -34.05432679	    -59.80475476	     13.80848845	     -6.15929655	    -11.52769542
      3.98000000	     -1.15053390	      1.20114569	      0.88974268	     20.29099097	      8.94719893	    -32.94492578	    -61.94107409	     13.86437860	     -5.89613527	    -11.72689716
      3.99000000	     -1.37608812	      1.21056678	      0.89257741	     19.14084468	     11.20245253	    -31.65533684	    -63.82955259	     13.68700491	     -5.55261022	    -11.92716468
      4.00000000	     -1.59277108	      1.22010786	      0.89557877	     17.85602166	     13.38622141	    -30.15408469	    -65.28431709	     13.56951903	     -5.07478983	    -12.12370013
      4.01000000	     -1.71917238	      1.22964115	      0.89857165	     16.42330110	     15.49169484	    -28.52409621	    -66.49550765	     13.28251459	     -4.11487283	    -12.39264551
      4.02000000	     -1.91911440	      1.23921501	      0.90155260	     15.03871815	     17.61215939	    -26.85342483	    -67.38278969	     13.05961900	     -2.72814536	    -12.57503867
      4.03000000	     -1.98023071	      1.24882969	      0.90442308	     13.52026521	     19.51665186	    -25.19096447	    -67.92303249	     12.79091712	     -1.13506131	    -12.90154765
      4.04000000	     -2.03823930	      1.25832228	      0.90735914	     12.01230968	     21.37800422	    -23.52390114	    -68.05672742	     12.41839225	      0.04925873	    -13.21812835
      4.05000000	     -2.04070311	      1.26789393	      0.90995340	     10.45401189	     23.13335421	    -21.88678476	    -67.87167019	     12.11285384	      1.05659841	    -13.59377867
      4.06000000	     -2.10659765	      1.27743192	      0.91241584	      8.98106364	     24.86580806	    -20.28103435	    -67.25495127	     11.76787478	      1.79111953	    -13.90472758
      4.07000000	     -2.04966706	      1.28701364	      0.91459715	      7.41128898	     26.37010982	    -18.72292417	    -66.26316352	     11.35253276	      2.39357824	    -14.34756832
      4.08000000	     -2.11755945	      1.29647196	      0.91648635	      6.01568963	     27.89437593	    -17.20318252	    -64.88541224	     10.89329601	      2.99590346	    -14.66455166
      4.09000000	     -2.20264384	      1.30592874	      0.91792357	      4.66068968	     29.36671286	    -15.72629559	    -63.18450709	     10.46963712	      3.28745076	    -14.93616428
      4.10000000	     -2.24828076	      1.31552622	      0.91897348	      3.32929073	     30.64753638	    -14.36332899	    -61.11754661	     10.12702353	      3.52100305	    -15.24818958
